<mxfile host="app.diagrams.net" agent="Mozilla/5.0 (Macintosh; Intel Mac OS X 10_15_7) AppleWebKit/537.36 (KHTML, like Gecko) Chrome/141.0.0.0 Safari/537.36 Edg/141.0.0.0" version="28.2.7">
  <diagram id="prtHgNgQTEPvFCAcTncT" name="Page-1">
    <mxGraphModel dx="1741" dy="1065" grid="1" gridSize="10" guides="1" tooltips="1" connect="1" arrows="1" fold="1" page="1" pageScale="1" pageWidth="827" pageHeight="1169" math="0" shadow="0">
      <root>
        <mxCell id="0" />
        <mxCell id="1" parent="0" />
        <mxCell id="0aJKDV-4UEbGTjIscSVI-1" value="api渠道进件授信" style="swimlane;childLayout=stackLayout;resizeParent=1;resizeParentMax=0;startSize=20;html=1;labelBackgroundColor=none;fillColor=#B2C9AB;strokeColor=#3333FF;fontColor=#46495D;" parent="1" vertex="1">
          <mxGeometry x="234.00000000000045" y="105" width="1700" height="1820" as="geometry" />
        </mxCell>
        <mxCell id="0aJKDV-4UEbGTjIscSVI-2" value="引流渠道" style="swimlane;startSize=20;html=1;labelBackgroundColor=none;fillColor=#B2C9AB;strokeColor=#3333FF;fontColor=#46495D;" parent="0aJKDV-4UEbGTjIscSVI-1" vertex="1">
          <mxGeometry y="20" width="120" height="1800" as="geometry" />
        </mxCell>
        <mxCell id="0aJKDV-4UEbGTjIscSVI-20" style="edgeStyle=orthogonalEdgeStyle;rounded=0;orthogonalLoop=1;jettySize=auto;html=1;entryX=0.5;entryY=0;entryDx=0;entryDy=0;strokeColor=#788AA3;fontFamily=Helvetica;fontSize=12;fontColor=#46495D;startSize=20;fillColor=#B2C9AB;" parent="0aJKDV-4UEbGTjIscSVI-2" source="0aJKDV-4UEbGTjIscSVI-12" target="0aJKDV-4UEbGTjIscSVI-19" edge="1">
          <mxGeometry relative="1" as="geometry" />
        </mxCell>
        <mxCell id="0aJKDV-4UEbGTjIscSVI-21" value="撞库通过" style="edgeLabel;html=1;align=center;verticalAlign=middle;resizable=0;points=[];fontSize=12;fontFamily=Helvetica;fontColor=#46495D;" parent="0aJKDV-4UEbGTjIscSVI-20" vertex="1" connectable="0">
          <mxGeometry x="0.05" y="-3" relative="1" as="geometry">
            <mxPoint as="offset" />
          </mxGeometry>
        </mxCell>
        <mxCell id="0aJKDV-4UEbGTjIscSVI-12" value="请求撞库" style="rounded=0;whiteSpace=wrap;html=1;labelBackgroundColor=none;strokeColor=#3333FF;align=center;verticalAlign=middle;fontFamily=Helvetica;fontSize=12;fontColor=#46495D;startSize=20;fillColor=#B2C9AB;" parent="0aJKDV-4UEbGTjIscSVI-2" vertex="1">
          <mxGeometry x="14.999999999999545" y="45" width="90" height="40" as="geometry" />
        </mxCell>
        <mxCell id="0aJKDV-4UEbGTjIscSVI-19" value="授信进件" style="rounded=0;whiteSpace=wrap;html=1;labelBackgroundColor=none;strokeColor=#3333FF;align=center;verticalAlign=middle;fontFamily=Helvetica;fontSize=12;fontColor=#46495D;startSize=20;fillColor=#B2C9AB;" parent="0aJKDV-4UEbGTjIscSVI-2" vertex="1">
          <mxGeometry x="14.999999999999545" y="135" width="90" height="40" as="geometry" />
        </mxCell>
        <mxCell id="0aJKDV-4UEbGTjIscSVI-86" value="接收授信结论" style="rounded=0;whiteSpace=wrap;html=1;labelBackgroundColor=none;strokeColor=#3333FF;align=center;verticalAlign=middle;fontFamily=Helvetica;fontSize=12;fontColor=#46495D;startSize=20;fillColor=#B2C9AB;" parent="0aJKDV-4UEbGTjIscSVI-2" vertex="1">
          <mxGeometry x="14.999999999999545" y="1415" width="90" height="40" as="geometry" />
        </mxCell>
        <mxCell id="0aJKDV-4UEbGTjIscSVI-89" value="查询授信审批结论" style="rounded=0;whiteSpace=wrap;html=1;labelBackgroundColor=none;strokeColor=#3333FF;align=center;verticalAlign=middle;fontFamily=Helvetica;fontSize=12;fontColor=#46495D;startSize=20;fillColor=#B2C9AB;" parent="0aJKDV-4UEbGTjIscSVI-2" vertex="1">
          <mxGeometry x="14.999999999999545" y="1505" width="90" height="40" as="geometry" />
        </mxCell>
        <mxCell id="0aJKDV-4UEbGTjIscSVI-97" value="绑卡" style="rounded=0;whiteSpace=wrap;html=1;labelBackgroundColor=none;strokeColor=#3333FF;align=center;verticalAlign=middle;fontFamily=Helvetica;fontSize=12;fontColor=#46495D;startSize=20;fillColor=#B2C9AB;" parent="0aJKDV-4UEbGTjIscSVI-2" vertex="1">
          <mxGeometry x="14.999999999999545" y="1625" width="90" height="40" as="geometry" />
        </mxCell>
        <mxCell id="0aJKDV-4UEbGTjIscSVI-3" value="xyf-api-gateway" style="swimlane;startSize=20;html=1;labelBackgroundColor=none;fillColor=#B2C9AB;strokeColor=#3333FF;fontColor=#46495D;" parent="0aJKDV-4UEbGTjIscSVI-1" vertex="1">
          <mxGeometry x="120" y="20" width="180" height="1800" as="geometry" />
        </mxCell>
        <mxCell id="0aJKDV-4UEbGTjIscSVI-15" value="撞库决策" style="rounded=0;whiteSpace=wrap;html=1;labelBackgroundColor=none;strokeColor=#3333FF;align=center;verticalAlign=middle;fontFamily=Helvetica;fontSize=12;fontColor=#46495D;startSize=20;fillColor=#B2C9AB;" parent="0aJKDV-4UEbGTjIscSVI-3" vertex="1">
          <mxGeometry x="44.999999999999545" y="45" width="90" height="40" as="geometry" />
        </mxCell>
        <mxCell id="0aJKDV-4UEbGTjIscSVI-25" value="" style="edgeStyle=orthogonalEdgeStyle;rounded=0;orthogonalLoop=1;jettySize=auto;html=1;strokeColor=#788AA3;fontFamily=Helvetica;fontSize=12;fontColor=#46495D;startSize=20;fillColor=#B2C9AB;" parent="0aJKDV-4UEbGTjIscSVI-3" source="0aJKDV-4UEbGTjIscSVI-22" target="0aJKDV-4UEbGTjIscSVI-24" edge="1">
          <mxGeometry relative="1" as="geometry" />
        </mxCell>
        <mxCell id="0aJKDV-4UEbGTjIscSVI-22" value="进件接口" style="rounded=0;whiteSpace=wrap;html=1;labelBackgroundColor=none;strokeColor=#3333FF;align=center;verticalAlign=middle;fontFamily=Helvetica;fontSize=12;fontColor=#46495D;startSize=20;fillColor=#B2C9AB;" parent="0aJKDV-4UEbGTjIscSVI-3" vertex="1">
          <mxGeometry x="44.999999999999545" y="135" width="90" height="40" as="geometry" />
        </mxCell>
        <mxCell id="0aJKDV-4UEbGTjIscSVI-27" value="" style="edgeStyle=orthogonalEdgeStyle;rounded=0;orthogonalLoop=1;jettySize=auto;html=1;strokeColor=#788AA3;fontFamily=Helvetica;fontSize=12;fontColor=#46495D;startSize=20;fillColor=#B2C9AB;" parent="0aJKDV-4UEbGTjIscSVI-3" source="0aJKDV-4UEbGTjIscSVI-24" target="0aJKDV-4UEbGTjIscSVI-26" edge="1">
          <mxGeometry relative="1" as="geometry" />
        </mxCell>
        <mxCell id="0aJKDV-4UEbGTjIscSVI-24" value="收单" style="rounded=0;whiteSpace=wrap;html=1;labelBackgroundColor=none;strokeColor=#3333FF;align=center;verticalAlign=middle;fontFamily=Helvetica;fontSize=12;fontColor=#46495D;startSize=20;fillColor=#B2C9AB;" parent="0aJKDV-4UEbGTjIscSVI-3" vertex="1">
          <mxGeometry x="44.999999999999545" y="235" width="90" height="40" as="geometry" />
        </mxCell>
        <mxCell id="0aJKDV-4UEbGTjIscSVI-29" value="" style="edgeStyle=orthogonalEdgeStyle;rounded=0;orthogonalLoop=1;jettySize=auto;html=1;strokeColor=#788AA3;fontFamily=Helvetica;fontSize=12;fontColor=#46495D;startSize=20;fillColor=#B2C9AB;" parent="0aJKDV-4UEbGTjIscSVI-3" source="0aJKDV-4UEbGTjIscSVI-26" target="0aJKDV-4UEbGTjIscSVI-28" edge="1">
          <mxGeometry relative="1" as="geometry" />
        </mxCell>
        <mxCell id="0aJKDV-4UEbGTjIscSVI-26" value="上报风险挑战项" style="rounded=0;whiteSpace=wrap;html=1;labelBackgroundColor=none;strokeColor=#3333FF;align=center;verticalAlign=middle;fontFamily=Helvetica;fontSize=12;fontColor=#46495D;startSize=20;fillColor=#B2C9AB;" parent="0aJKDV-4UEbGTjIscSVI-3" vertex="1">
          <mxGeometry x="44.999999999999545" y="585" width="90" height="40" as="geometry" />
        </mxCell>
        <mxCell id="0aJKDV-4UEbGTjIscSVI-28" value="激活" style="rounded=0;whiteSpace=wrap;html=1;labelBackgroundColor=none;strokeColor=#3333FF;align=center;verticalAlign=middle;fontFamily=Helvetica;fontSize=12;fontColor=#46495D;startSize=20;fillColor=#B2C9AB;" parent="0aJKDV-4UEbGTjIscSVI-3" vertex="1">
          <mxGeometry x="44.999999999999545" y="795" width="90" height="40" as="geometry" />
        </mxCell>
        <mxCell id="0aJKDV-4UEbGTjIscSVI-84" value="授信结论通知" style="rounded=0;whiteSpace=wrap;html=1;labelBackgroundColor=none;strokeColor=#3333FF;align=center;verticalAlign=middle;fontFamily=Helvetica;fontSize=12;fontColor=#46495D;startSize=20;fillColor=#B2C9AB;" parent="0aJKDV-4UEbGTjIscSVI-3" vertex="1">
          <mxGeometry x="44.999999999999545" y="1415" width="90" height="40" as="geometry" />
        </mxCell>
        <mxCell id="0aJKDV-4UEbGTjIscSVI-90" value="查询授信审批结论" style="rounded=0;whiteSpace=wrap;html=1;labelBackgroundColor=none;strokeColor=#3333FF;align=center;verticalAlign=middle;fontFamily=Helvetica;fontSize=12;fontColor=#46495D;startSize=20;fillColor=#B2C9AB;" parent="0aJKDV-4UEbGTjIscSVI-3" vertex="1">
          <mxGeometry x="44.999999999999545" y="1505" width="90" height="40" as="geometry" />
        </mxCell>
        <mxCell id="0aJKDV-4UEbGTjIscSVI-98" value="绑卡接口" style="rounded=0;whiteSpace=wrap;html=1;labelBackgroundColor=none;strokeColor=#3333FF;align=center;verticalAlign=middle;fontFamily=Helvetica;fontSize=12;fontColor=#46495D;startSize=20;fillColor=#B2C9AB;" parent="0aJKDV-4UEbGTjIscSVI-3" vertex="1">
          <mxGeometry x="44.999999999999545" y="1625" width="90" height="40" as="geometry" />
        </mxCell>
        <mxCell id="0aJKDV-4UEbGTjIscSVI-4" value="apiopfcore" style="swimlane;startSize=20;html=1;labelBackgroundColor=none;fillColor=#B2C9AB;strokeColor=#3333FF;fontColor=#46495D;" parent="0aJKDV-4UEbGTjIscSVI-1" vertex="1">
          <mxGeometry x="300" y="20" width="250" height="1800" as="geometry" />
        </mxCell>
        <mxCell id="0aJKDV-4UEbGTjIscSVI-16" value="提供撞库相关数据" style="rounded=0;whiteSpace=wrap;html=1;labelBackgroundColor=none;strokeColor=#3333FF;align=center;verticalAlign=middle;fontFamily=Helvetica;fontSize=12;fontColor=#46495D;startSize=20;fillColor=#B2C9AB;" parent="0aJKDV-4UEbGTjIscSVI-4" vertex="1">
          <mxGeometry x="79.99999999999955" y="45" width="90" height="40" as="geometry" />
        </mxCell>
        <mxCell id="0aJKDV-4UEbGTjIscSVI-35" value="" style="edgeStyle=orthogonalEdgeStyle;shape=connector;curved=0;rounded=1;orthogonalLoop=1;jettySize=auto;html=1;labelBackgroundColor=default;strokeColor=#788AA3;align=center;verticalAlign=middle;fontFamily=Helvetica;fontSize=12;fontColor=#46495D;endArrow=classic;startSize=20;fillColor=#B2C9AB;" parent="0aJKDV-4UEbGTjIscSVI-4" source="0aJKDV-4UEbGTjIscSVI-30" target="0aJKDV-4UEbGTjIscSVI-34" edge="1">
          <mxGeometry relative="1" as="geometry" />
        </mxCell>
        <mxCell id="0aJKDV-4UEbGTjIscSVI-30" value="收单接口" style="rounded=0;whiteSpace=wrap;html=1;labelBackgroundColor=none;strokeColor=#3333FF;align=center;verticalAlign=middle;fontFamily=Helvetica;fontSize=12;fontColor=#46495D;startSize=20;fillColor=#B2C9AB;" parent="0aJKDV-4UEbGTjIscSVI-4" vertex="1">
          <mxGeometry x="79.99999999999955" y="235" width="90" height="40" as="geometry" />
        </mxCell>
        <mxCell id="0aJKDV-4UEbGTjIscSVI-38" style="edgeStyle=orthogonalEdgeStyle;shape=connector;curved=0;rounded=1;orthogonalLoop=1;jettySize=auto;html=1;labelBackgroundColor=default;strokeColor=#788AA3;align=center;verticalAlign=middle;fontFamily=Helvetica;fontSize=12;fontColor=#46495D;endArrow=classic;startSize=20;fillColor=#B2C9AB;" parent="0aJKDV-4UEbGTjIscSVI-4" source="0aJKDV-4UEbGTjIscSVI-34" edge="1">
          <mxGeometry relative="1" as="geometry">
            <mxPoint x="124.99999999999955" y="405" as="targetPoint" />
          </mxGeometry>
        </mxCell>
        <mxCell id="0aJKDV-4UEbGTjIscSVI-34" value="二一致、三一致校验" style="rounded=0;whiteSpace=wrap;html=1;labelBackgroundColor=none;strokeColor=#3333FF;align=center;verticalAlign=middle;fontFamily=Helvetica;fontSize=12;fontColor=#46495D;startSize=20;fillColor=#B2C9AB;" parent="0aJKDV-4UEbGTjIscSVI-4" vertex="1">
          <mxGeometry x="79.99999999999955" y="325" width="90" height="40" as="geometry" />
        </mxCell>
        <mxCell id="0aJKDV-4UEbGTjIscSVI-43" style="edgeStyle=orthogonalEdgeStyle;shape=connector;curved=0;rounded=1;orthogonalLoop=1;jettySize=auto;html=1;entryX=0.5;entryY=0;entryDx=0;entryDy=0;labelBackgroundColor=default;strokeColor=#788AA3;align=center;verticalAlign=middle;fontFamily=Helvetica;fontSize=12;fontColor=#46495D;endArrow=classic;startSize=20;fillColor=#B2C9AB;" parent="0aJKDV-4UEbGTjIscSVI-4" source="0aJKDV-4UEbGTjIscSVI-39" target="0aJKDV-4UEbGTjIscSVI-42" edge="1">
          <mxGeometry relative="1" as="geometry" />
        </mxCell>
        <mxCell id="0aJKDV-4UEbGTjIscSVI-39" value="请求CIS绑定Person" style="rounded=0;whiteSpace=wrap;html=1;labelBackgroundColor=none;strokeColor=#3333FF;align=center;verticalAlign=middle;fontFamily=Helvetica;fontSize=12;fontColor=#46495D;startSize=20;fillColor=#B2C9AB;" parent="0aJKDV-4UEbGTjIscSVI-4" vertex="1">
          <mxGeometry x="79.99999999999955" y="405" width="90" height="40" as="geometry" />
        </mxCell>
        <mxCell id="0aJKDV-4UEbGTjIscSVI-42" value="生成个人信息合同+委托代扣合同" style="rounded=0;whiteSpace=wrap;html=1;labelBackgroundColor=none;strokeColor=#3333FF;align=center;verticalAlign=middle;fontFamily=Helvetica;fontSize=12;fontColor=#46495D;startSize=20;fillColor=#B2C9AB;" parent="0aJKDV-4UEbGTjIscSVI-4" vertex="1">
          <mxGeometry x="79.99999999999955" y="485" width="90" height="40" as="geometry" />
        </mxCell>
        <mxCell id="0aJKDV-4UEbGTjIscSVI-47" value="上报风险挑战项" style="rounded=0;whiteSpace=wrap;html=1;labelBackgroundColor=none;strokeColor=#3333FF;align=center;verticalAlign=middle;fontFamily=Helvetica;fontSize=12;fontColor=#46495D;startSize=20;fillColor=#B2C9AB;" parent="0aJKDV-4UEbGTjIscSVI-4" vertex="1">
          <mxGeometry x="79.99999999999955" y="585" width="90" height="40" as="geometry" />
        </mxCell>
        <mxCell id="0aJKDV-4UEbGTjIscSVI-53" value="发起授信申请" style="rounded=0;whiteSpace=wrap;html=1;labelBackgroundColor=none;strokeColor=#3333FF;align=center;verticalAlign=middle;fontFamily=Helvetica;fontSize=12;fontColor=#46495D;startSize=20;fillColor=#B2C9AB;" parent="0aJKDV-4UEbGTjIscSVI-4" vertex="1">
          <mxGeometry x="79.99999999999955" y="795" width="90" height="40" as="geometry" />
        </mxCell>
        <mxCell id="0aJKDV-4UEbGTjIscSVI-83" value="" style="edgeStyle=orthogonalEdgeStyle;shape=connector;curved=0;rounded=1;orthogonalLoop=1;jettySize=auto;html=1;labelBackgroundColor=default;strokeColor=#788AA3;align=center;verticalAlign=middle;fontFamily=Helvetica;fontSize=12;fontColor=#46495D;endArrow=classic;startSize=20;fillColor=#B2C9AB;" parent="0aJKDV-4UEbGTjIscSVI-4" source="0aJKDV-4UEbGTjIscSVI-77" target="0aJKDV-4UEbGTjIscSVI-82" edge="1">
          <mxGeometry relative="1" as="geometry" />
        </mxCell>
        <mxCell id="0aJKDV-4UEbGTjIscSVI-77" value="授信结果处理" style="rounded=0;whiteSpace=wrap;html=1;labelBackgroundColor=none;strokeColor=#3333FF;align=center;verticalAlign=middle;fontFamily=Helvetica;fontSize=12;fontColor=#46495D;startSize=20;fillColor=#B2C9AB;" parent="0aJKDV-4UEbGTjIscSVI-4" vertex="1">
          <mxGeometry x="79.99999999999955" y="1295" width="90" height="40" as="geometry" />
        </mxCell>
        <mxCell id="0aJKDV-4UEbGTjIscSVI-82" value="授信结论通知" style="rounded=0;whiteSpace=wrap;html=1;labelBackgroundColor=none;strokeColor=#3333FF;align=center;verticalAlign=middle;fontFamily=Helvetica;fontSize=12;fontColor=#46495D;startSize=20;fillColor=#B2C9AB;" parent="0aJKDV-4UEbGTjIscSVI-4" vertex="1">
          <mxGeometry x="79.99999999999955" y="1415" width="90" height="40" as="geometry" />
        </mxCell>
        <mxCell id="0aJKDV-4UEbGTjIscSVI-92" value="查询授信审批结论" style="rounded=0;whiteSpace=wrap;html=1;labelBackgroundColor=none;strokeColor=#3333FF;align=center;verticalAlign=middle;fontFamily=Helvetica;fontSize=12;fontColor=#46495D;startSize=20;fillColor=#B2C9AB;" parent="0aJKDV-4UEbGTjIscSVI-4" vertex="1">
          <mxGeometry x="79.99999999999955" y="1505" width="90" height="40" as="geometry" />
        </mxCell>
        <mxCell id="0aJKDV-4UEbGTjIscSVI-57" value="kyc" style="swimlane;startSize=20;html=1;labelBackgroundColor=none;fillColor=#B2C9AB;strokeColor=#3333FF;fontColor=#46495D;" parent="0aJKDV-4UEbGTjIscSVI-1" vertex="1">
          <mxGeometry x="550" y="20" width="250" height="1800" as="geometry" />
        </mxCell>
        <mxCell id="0aJKDV-4UEbGTjIscSVI-58" value="获取face决策结果" style="rounded=0;whiteSpace=wrap;html=1;labelBackgroundColor=none;strokeColor=#b85450;align=center;verticalAlign=middle;fontFamily=Helvetica;fontSize=12;startSize=20;fillColor=#f8cecc;" parent="0aJKDV-4UEbGTjIscSVI-57" vertex="1">
          <mxGeometry x="79.99999999999955" y="921" width="90" height="40" as="geometry" />
        </mxCell>
        <mxCell id="0aJKDV-4UEbGTjIscSVI-59" value="查询上报征信所需材料，征信上报" style="rounded=0;whiteSpace=wrap;html=1;labelBackgroundColor=none;strokeColor=#b85450;align=center;verticalAlign=middle;fontFamily=Helvetica;fontSize=12;startSize=20;fillColor=#f8cecc;" parent="0aJKDV-4UEbGTjIscSVI-57" vertex="1">
          <mxGeometry x="80" y="1001" width="90" height="50" as="geometry" />
        </mxCell>
        <mxCell id="0aJKDV-4UEbGTjIscSVI-6" value="风控" style="swimlane;startSize=20;html=1;labelBackgroundColor=none;fillColor=#B2C9AB;strokeColor=#3333FF;fontColor=#46495D;" parent="0aJKDV-4UEbGTjIscSVI-1" vertex="1">
          <mxGeometry x="800" y="20" width="180" height="1800" as="geometry" />
        </mxCell>
        <mxCell id="0aJKDV-4UEbGTjIscSVI-32" value="查询个人风控产品信息" style="rounded=0;whiteSpace=wrap;html=1;labelBackgroundColor=none;strokeColor=#3333FF;align=center;verticalAlign=middle;fontFamily=Helvetica;fontSize=12;fontColor=#46495D;startSize=20;fillColor=#B2C9AB;" parent="0aJKDV-4UEbGTjIscSVI-6" vertex="1">
          <mxGeometry x="44.999999999999545" y="235" width="90" height="40" as="geometry" />
        </mxCell>
        <mxCell id="0aJKDV-4UEbGTjIscSVI-36" value="二一致、三一致校验接口" style="rounded=0;whiteSpace=wrap;html=1;labelBackgroundColor=none;strokeColor=#3333FF;align=center;verticalAlign=middle;fontFamily=Helvetica;fontSize=12;fontColor=#46495D;startSize=20;fillColor=#B2C9AB;" parent="0aJKDV-4UEbGTjIscSVI-6" vertex="1">
          <mxGeometry x="44.999999999999545" y="325" width="90" height="40" as="geometry" />
        </mxCell>
        <mxCell id="0aJKDV-4UEbGTjIscSVI-50" value="风险挑战项" style="rounded=0;whiteSpace=wrap;html=1;labelBackgroundColor=none;strokeColor=#3333FF;align=center;verticalAlign=middle;fontFamily=Helvetica;fontSize=12;fontColor=#46495D;startSize=20;fillColor=#B2C9AB;" parent="0aJKDV-4UEbGTjIscSVI-6" vertex="1">
          <mxGeometry x="44.999999999999545" y="635" width="90" height="40" as="geometry" />
        </mxCell>
        <mxCell id="0aJKDV-4UEbGTjIscSVI-63" style="edgeStyle=orthogonalEdgeStyle;shape=connector;curved=0;rounded=1;orthogonalLoop=1;jettySize=auto;html=1;entryX=0.5;entryY=0;entryDx=0;entryDy=0;labelBackgroundColor=default;strokeColor=#788AA3;align=center;verticalAlign=middle;fontFamily=Helvetica;fontSize=12;fontColor=#46495D;endArrow=classic;startSize=20;fillColor=#B2C9AB;" parent="0aJKDV-4UEbGTjIscSVI-6" source="0aJKDV-4UEbGTjIscSVI-55" target="0aJKDV-4UEbGTjIscSVI-61" edge="1">
          <mxGeometry relative="1" as="geometry" />
        </mxCell>
        <mxCell id="0aJKDV-4UEbGTjIscSVI-55" value="授信决策" style="rounded=0;whiteSpace=wrap;html=1;labelBackgroundColor=none;strokeColor=#3333FF;align=center;verticalAlign=middle;fontFamily=Helvetica;fontSize=12;fontColor=#46495D;startSize=20;fillColor=#B2C9AB;" parent="0aJKDV-4UEbGTjIscSVI-6" vertex="1">
          <mxGeometry x="75.99999999999955" y="855" width="90" height="40" as="geometry" />
        </mxCell>
        <mxCell id="0aJKDV-4UEbGTjIscSVI-67" style="edgeStyle=orthogonalEdgeStyle;shape=connector;curved=0;rounded=1;orthogonalLoop=1;jettySize=auto;html=1;entryX=0.5;entryY=0;entryDx=0;entryDy=0;labelBackgroundColor=default;strokeColor=#788AA3;align=center;verticalAlign=middle;fontFamily=Helvetica;fontSize=12;fontColor=#46495D;endArrow=classic;startSize=20;fillColor=#B2C9AB;" parent="0aJKDV-4UEbGTjIscSVI-6" source="0aJKDV-4UEbGTjIscSVI-61" target="0aJKDV-4UEbGTjIscSVI-66" edge="1">
          <mxGeometry relative="1" as="geometry" />
        </mxCell>
        <mxCell id="0aJKDV-4UEbGTjIscSVI-61" value="获取face决策结果" style="rounded=0;whiteSpace=wrap;html=1;labelBackgroundColor=none;strokeColor=#3333FF;align=center;verticalAlign=middle;fontFamily=Helvetica;fontSize=12;fontColor=#46495D;startSize=20;fillColor=#B2C9AB;" parent="0aJKDV-4UEbGTjIscSVI-6" vertex="1">
          <mxGeometry x="75.99999999999955" y="921" width="90" height="40" as="geometry" />
        </mxCell>
        <mxCell id="0aJKDV-4UEbGTjIscSVI-66" value="查询上报征信所需材料" style="rounded=0;whiteSpace=wrap;html=1;labelBackgroundColor=none;strokeColor=#3333FF;align=center;verticalAlign=middle;fontFamily=Helvetica;fontSize=12;fontColor=#46495D;startSize=20;fillColor=#B2C9AB;" parent="0aJKDV-4UEbGTjIscSVI-6" vertex="1">
          <mxGeometry x="75.99999999999955" y="1006" width="90" height="40" as="geometry" />
        </mxCell>
        <mxCell id="0aJKDV-4UEbGTjIscSVI-74" value="" style="edgeStyle=orthogonalEdgeStyle;shape=connector;curved=0;rounded=1;orthogonalLoop=1;jettySize=auto;html=1;labelBackgroundColor=default;strokeColor=#788AA3;align=center;verticalAlign=middle;fontFamily=Helvetica;fontSize=12;fontColor=#46495D;endArrow=classic;startSize=20;fillColor=#B2C9AB;" parent="0aJKDV-4UEbGTjIscSVI-6" source="0aJKDV-4UEbGTjIscSVI-72" edge="1">
          <mxGeometry relative="1" as="geometry">
            <mxPoint x="89.99999999999955" y="1225" as="targetPoint" />
          </mxGeometry>
        </mxCell>
        <mxCell id="0aJKDV-4UEbGTjIscSVI-76" value="生产" style="edgeLabel;html=1;align=center;verticalAlign=middle;resizable=0;points=[];fontSize=12;fontFamily=Helvetica;fontColor=#46495D;" parent="0aJKDV-4UEbGTjIscSVI-74" vertex="1" connectable="0">
          <mxGeometry x="-0.0744" y="-3" relative="1" as="geometry">
            <mxPoint as="offset" />
          </mxGeometry>
        </mxCell>
        <mxCell id="0aJKDV-4UEbGTjIscSVI-72" value="授信结果通知" style="rounded=0;whiteSpace=wrap;html=1;labelBackgroundColor=none;strokeColor=#3333FF;align=center;verticalAlign=middle;fontFamily=Helvetica;fontSize=12;fontColor=#46495D;startSize=20;fillColor=#B2C9AB;" parent="0aJKDV-4UEbGTjIscSVI-6" vertex="1">
          <mxGeometry x="44.999999999999545" y="1125" width="90" height="40" as="geometry" />
        </mxCell>
        <mxCell id="0aJKDV-4UEbGTjIscSVI-75" value="rocketmq" style="strokeWidth=2;html=1;shape=mxgraph.flowchart.direct_data;whiteSpace=wrap;labelBackgroundColor=none;strokeColor=#3333FF;align=center;verticalAlign=middle;fontFamily=Helvetica;fontSize=12;fontColor=#46495D;startSize=20;fillColor=#B2C9AB;" parent="0aJKDV-4UEbGTjIscSVI-6" vertex="1">
          <mxGeometry x="44.999999999999545" y="1225" width="100" height="60" as="geometry" />
        </mxCell>
        <mxCell id="0aJKDV-4UEbGTjIscSVI-94" value="查询授信审批结论" style="rounded=0;whiteSpace=wrap;html=1;labelBackgroundColor=none;strokeColor=#3333FF;align=center;verticalAlign=middle;fontFamily=Helvetica;fontSize=12;fontColor=#46495D;startSize=20;fillColor=#B2C9AB;" parent="0aJKDV-4UEbGTjIscSVI-6" vertex="1">
          <mxGeometry x="44.999999999999545" y="1505" width="90" height="40" as="geometry" />
        </mxCell>
        <mxCell id="_hFNNQDsAzryGd1d4DFy-2" value="授信合同签章" style="rounded=0;whiteSpace=wrap;html=1;labelBackgroundColor=none;strokeColor=#3333FF;align=center;verticalAlign=middle;fontFamily=Helvetica;fontSize=12;fontColor=#46495D;startSize=20;fillColor=#B2C9AB;" vertex="1" parent="0aJKDV-4UEbGTjIscSVI-6">
          <mxGeometry x="75.99999999999955" y="795" width="90" height="40" as="geometry" />
        </mxCell>
        <mxCell id="0aJKDV-4UEbGTjIscSVI-7" value="CIS" style="swimlane;startSize=20;html=1;labelBackgroundColor=none;fillColor=#B2C9AB;strokeColor=#3333FF;fontColor=#46495D;" parent="0aJKDV-4UEbGTjIscSVI-1" vertex="1">
          <mxGeometry x="980" y="20" width="180" height="1800" as="geometry" />
        </mxCell>
        <mxCell id="0aJKDV-4UEbGTjIscSVI-40" value="绑定Person" style="rounded=0;whiteSpace=wrap;html=1;labelBackgroundColor=none;strokeColor=#3333FF;align=center;verticalAlign=middle;fontFamily=Helvetica;fontSize=12;fontColor=#46495D;startSize=20;fillColor=#B2C9AB;" parent="0aJKDV-4UEbGTjIscSVI-7" vertex="1">
          <mxGeometry x="44.999999999999545" y="405" width="90" height="40" as="geometry" />
        </mxCell>
        <mxCell id="0aJKDV-4UEbGTjIscSVI-46" value="上报风险挑战项接口" style="rounded=0;whiteSpace=wrap;html=1;labelBackgroundColor=none;strokeColor=#3333FF;align=center;verticalAlign=middle;fontFamily=Helvetica;fontSize=12;fontColor=#46495D;startSize=20;fillColor=#B2C9AB;" parent="0aJKDV-4UEbGTjIscSVI-7" vertex="1">
          <mxGeometry x="39.999999999999545" y="585" width="90" height="40" as="geometry" />
        </mxCell>
        <mxCell id="0aJKDV-4UEbGTjIscSVI-5" value="账务" style="swimlane;startSize=20;html=1;labelBackgroundColor=none;fillColor=#B2C9AB;strokeColor=#3333FF;fontColor=#46495D;" parent="0aJKDV-4UEbGTjIscSVI-1" vertex="1">
          <mxGeometry x="1160" y="20" width="180" height="1800" as="geometry" />
        </mxCell>
        <mxCell id="0aJKDV-4UEbGTjIscSVI-102" value="账务开户" style="rounded=0;whiteSpace=wrap;html=1;labelBackgroundColor=none;strokeColor=#3333FF;align=center;verticalAlign=middle;fontFamily=Helvetica;fontSize=12;fontColor=#46495D;startSize=20;fillColor=#B2C9AB;" parent="0aJKDV-4UEbGTjIscSVI-5" vertex="1">
          <mxGeometry x="44.999999999999545" y="1685" width="90" height="40" as="geometry" />
        </mxCell>
        <mxCell id="0aJKDV-4UEbGTjIscSVI-9" value="支付" style="swimlane;startSize=20;html=1;labelBackgroundColor=none;fillColor=#B2C9AB;strokeColor=#3333FF;fontColor=#46495D;" parent="0aJKDV-4UEbGTjIscSVI-1" vertex="1">
          <mxGeometry x="1340" y="20" width="180" height="1800" as="geometry" />
        </mxCell>
        <mxCell id="0aJKDV-4UEbGTjIscSVI-104" value="绑卡签约" style="rounded=0;whiteSpace=wrap;html=1;labelBackgroundColor=none;strokeColor=#3333FF;align=center;verticalAlign=middle;fontFamily=Helvetica;fontSize=12;fontColor=#46495D;startSize=20;fillColor=#B2C9AB;" parent="0aJKDV-4UEbGTjIscSVI-9" vertex="1">
          <mxGeometry x="55.999999999999545" y="1625" width="90" height="40" as="geometry" />
        </mxCell>
        <mxCell id="0aJKDV-4UEbGTjIscSVI-14" value="" style="edgeStyle=orthogonalEdgeStyle;rounded=0;orthogonalLoop=1;jettySize=auto;html=1;strokeColor=#788AA3;fontFamily=Helvetica;fontSize=12;fontColor=#46495D;startSize=20;fillColor=#B2C9AB;entryX=0;entryY=0.5;entryDx=0;entryDy=0;" parent="0aJKDV-4UEbGTjIscSVI-1" source="0aJKDV-4UEbGTjIscSVI-12" target="0aJKDV-4UEbGTjIscSVI-15" edge="1">
          <mxGeometry relative="1" as="geometry">
            <mxPoint x="155.99999999999955" y="85" as="targetPoint" />
          </mxGeometry>
        </mxCell>
        <mxCell id="0aJKDV-4UEbGTjIscSVI-17" style="edgeStyle=orthogonalEdgeStyle;rounded=0;orthogonalLoop=1;jettySize=auto;html=1;strokeColor=#788AA3;fontFamily=Helvetica;fontSize=12;fontColor=#46495D;startSize=20;fillColor=#B2C9AB;" parent="0aJKDV-4UEbGTjIscSVI-1" source="0aJKDV-4UEbGTjIscSVI-15" target="0aJKDV-4UEbGTjIscSVI-16" edge="1">
          <mxGeometry relative="1" as="geometry" />
        </mxCell>
        <mxCell id="0aJKDV-4UEbGTjIscSVI-23" value="" style="edgeStyle=orthogonalEdgeStyle;rounded=0;orthogonalLoop=1;jettySize=auto;html=1;strokeColor=#788AA3;fontFamily=Helvetica;fontSize=12;fontColor=#46495D;startSize=20;fillColor=#B2C9AB;" parent="0aJKDV-4UEbGTjIscSVI-1" source="0aJKDV-4UEbGTjIscSVI-19" target="0aJKDV-4UEbGTjIscSVI-22" edge="1">
          <mxGeometry relative="1" as="geometry" />
        </mxCell>
        <mxCell id="0aJKDV-4UEbGTjIscSVI-31" style="edgeStyle=orthogonalEdgeStyle;rounded=1;orthogonalLoop=1;jettySize=auto;html=1;entryX=0;entryY=0.5;entryDx=0;entryDy=0;strokeColor=#788AA3;fontFamily=Helvetica;fontSize=12;fontColor=#46495D;startSize=20;fillColor=#B2C9AB;curved=0;" parent="0aJKDV-4UEbGTjIscSVI-1" source="0aJKDV-4UEbGTjIscSVI-24" target="0aJKDV-4UEbGTjIscSVI-30" edge="1">
          <mxGeometry relative="1" as="geometry" />
        </mxCell>
        <mxCell id="0aJKDV-4UEbGTjIscSVI-33" style="edgeStyle=orthogonalEdgeStyle;shape=connector;curved=0;rounded=1;orthogonalLoop=1;jettySize=auto;html=1;entryX=0;entryY=0.5;entryDx=0;entryDy=0;labelBackgroundColor=default;strokeColor=#788AA3;align=center;verticalAlign=middle;fontFamily=Helvetica;fontSize=12;fontColor=#46495D;endArrow=classic;startSize=20;fillColor=#B2C9AB;" parent="0aJKDV-4UEbGTjIscSVI-1" source="0aJKDV-4UEbGTjIscSVI-30" target="0aJKDV-4UEbGTjIscSVI-32" edge="1">
          <mxGeometry relative="1" as="geometry" />
        </mxCell>
        <mxCell id="0aJKDV-4UEbGTjIscSVI-37" style="edgeStyle=orthogonalEdgeStyle;shape=connector;curved=0;rounded=1;orthogonalLoop=1;jettySize=auto;html=1;entryX=0;entryY=0.5;entryDx=0;entryDy=0;labelBackgroundColor=default;strokeColor=#788AA3;align=center;verticalAlign=middle;fontFamily=Helvetica;fontSize=12;fontColor=#46495D;endArrow=classic;startSize=20;fillColor=#B2C9AB;" parent="0aJKDV-4UEbGTjIscSVI-1" source="0aJKDV-4UEbGTjIscSVI-34" target="0aJKDV-4UEbGTjIscSVI-36" edge="1">
          <mxGeometry relative="1" as="geometry" />
        </mxCell>
        <mxCell id="0aJKDV-4UEbGTjIscSVI-41" style="edgeStyle=orthogonalEdgeStyle;shape=connector;curved=0;rounded=1;orthogonalLoop=1;jettySize=auto;html=1;labelBackgroundColor=default;strokeColor=#788AA3;align=center;verticalAlign=middle;fontFamily=Helvetica;fontSize=12;fontColor=#46495D;endArrow=classic;startSize=20;fillColor=#B2C9AB;" parent="0aJKDV-4UEbGTjIscSVI-1" source="0aJKDV-4UEbGTjIscSVI-39" target="0aJKDV-4UEbGTjIscSVI-40" edge="1">
          <mxGeometry relative="1" as="geometry" />
        </mxCell>
        <mxCell id="0aJKDV-4UEbGTjIscSVI-45" style="edgeStyle=orthogonalEdgeStyle;shape=connector;curved=0;rounded=1;orthogonalLoop=1;jettySize=auto;html=1;labelBackgroundColor=default;strokeColor=#788AA3;align=center;verticalAlign=middle;fontFamily=Helvetica;fontSize=12;fontColor=#46495D;endArrow=classic;startSize=20;fillColor=#B2C9AB;" parent="0aJKDV-4UEbGTjIscSVI-1" source="0aJKDV-4UEbGTjIscSVI-42" target="0aJKDV-4UEbGTjIscSVI-44" edge="1">
          <mxGeometry relative="1" as="geometry" />
        </mxCell>
        <mxCell id="0aJKDV-4UEbGTjIscSVI-8" value="合同" style="swimlane;startSize=20;html=1;labelBackgroundColor=none;fillColor=#B2C9AB;strokeColor=#3333FF;fontColor=#46495D;" parent="0aJKDV-4UEbGTjIscSVI-1" vertex="1">
          <mxGeometry x="1520" y="20" width="180" height="1800" as="geometry" />
        </mxCell>
        <mxCell id="0aJKDV-4UEbGTjIscSVI-44" value="生成个人信息合同+委托代扣合同" style="rounded=0;whiteSpace=wrap;html=1;labelBackgroundColor=none;strokeColor=#3333FF;align=center;verticalAlign=middle;fontFamily=Helvetica;fontSize=12;fontColor=#46495D;startSize=20;fillColor=#B2C9AB;" parent="0aJKDV-4UEbGTjIscSVI-8" vertex="1">
          <mxGeometry x="45" y="482" width="90" height="45" as="geometry" />
        </mxCell>
        <mxCell id="0aJKDV-4UEbGTjIscSVI-69" value="合同签章" style="rounded=0;whiteSpace=wrap;html=1;labelBackgroundColor=none;strokeColor=#3333FF;align=center;verticalAlign=middle;fontFamily=Helvetica;fontSize=12;fontColor=#46495D;startSize=20;fillColor=#B2C9AB;" parent="0aJKDV-4UEbGTjIscSVI-8" vertex="1">
          <mxGeometry x="44.999999999999545" y="1075" width="90" height="40" as="geometry" />
        </mxCell>
        <mxCell id="_hFNNQDsAzryGd1d4DFy-5" value="授信合同签章" style="rounded=0;whiteSpace=wrap;html=1;labelBackgroundColor=none;strokeColor=#3333FF;align=center;verticalAlign=middle;fontFamily=Helvetica;fontSize=12;fontColor=#46495D;startSize=20;fillColor=#B2C9AB;" vertex="1" parent="0aJKDV-4UEbGTjIscSVI-8">
          <mxGeometry x="44.999999999999545" y="795" width="90" height="40" as="geometry" />
        </mxCell>
        <mxCell id="0aJKDV-4UEbGTjIscSVI-48" style="edgeStyle=orthogonalEdgeStyle;shape=connector;curved=0;rounded=1;orthogonalLoop=1;jettySize=auto;html=1;entryX=0;entryY=0.5;entryDx=0;entryDy=0;labelBackgroundColor=default;strokeColor=#788AA3;align=center;verticalAlign=middle;fontFamily=Helvetica;fontSize=12;fontColor=#46495D;endArrow=classic;startSize=20;fillColor=#B2C9AB;" parent="0aJKDV-4UEbGTjIscSVI-1" source="0aJKDV-4UEbGTjIscSVI-26" target="0aJKDV-4UEbGTjIscSVI-47" edge="1">
          <mxGeometry relative="1" as="geometry" />
        </mxCell>
        <mxCell id="0aJKDV-4UEbGTjIscSVI-49" style="edgeStyle=orthogonalEdgeStyle;shape=connector;curved=0;rounded=1;orthogonalLoop=1;jettySize=auto;html=1;entryX=0;entryY=0.5;entryDx=0;entryDy=0;labelBackgroundColor=default;strokeColor=#788AA3;align=center;verticalAlign=middle;fontFamily=Helvetica;fontSize=12;fontColor=#46495D;endArrow=classic;startSize=20;fillColor=#B2C9AB;" parent="0aJKDV-4UEbGTjIscSVI-1" source="0aJKDV-4UEbGTjIscSVI-47" target="0aJKDV-4UEbGTjIscSVI-46" edge="1">
          <mxGeometry relative="1" as="geometry" />
        </mxCell>
        <mxCell id="0aJKDV-4UEbGTjIscSVI-51" value="" style="endArrow=classic;html=1;rounded=1;labelBackgroundColor=default;strokeColor=#788AA3;align=center;verticalAlign=middle;fontFamily=Helvetica;fontSize=12;fontColor=#46495D;startSize=20;fillColor=#B2C9AB;shape=connector;edgeStyle=orthogonalEdgeStyle;curved=0;exitX=0.5;exitY=1;exitDx=0;exitDy=0;entryX=1;entryY=0.5;entryDx=0;entryDy=0;" parent="0aJKDV-4UEbGTjIscSVI-1" source="0aJKDV-4UEbGTjIscSVI-46" target="0aJKDV-4UEbGTjIscSVI-50" edge="1">
          <mxGeometry width="50" height="50" relative="1" as="geometry">
            <mxPoint x="655.9999999999995" y="435" as="sourcePoint" />
            <mxPoint x="705.9999999999995" y="385" as="targetPoint" />
          </mxGeometry>
        </mxCell>
        <mxCell id="0aJKDV-4UEbGTjIscSVI-52" value="双写" style="edgeLabel;html=1;align=center;verticalAlign=middle;resizable=0;points=[];fontSize=12;fontFamily=Helvetica;fontColor=#46495D;" parent="0aJKDV-4UEbGTjIscSVI-51" vertex="1" connectable="0">
          <mxGeometry x="0.1361" y="2" relative="1" as="geometry">
            <mxPoint as="offset" />
          </mxGeometry>
        </mxCell>
        <mxCell id="0aJKDV-4UEbGTjIscSVI-54" style="edgeStyle=orthogonalEdgeStyle;shape=connector;curved=0;rounded=1;orthogonalLoop=1;jettySize=auto;html=1;entryX=0;entryY=0.5;entryDx=0;entryDy=0;labelBackgroundColor=default;strokeColor=#788AA3;align=center;verticalAlign=middle;fontFamily=Helvetica;fontSize=12;fontColor=#46495D;endArrow=classic;startSize=20;fillColor=#B2C9AB;" parent="0aJKDV-4UEbGTjIscSVI-1" source="0aJKDV-4UEbGTjIscSVI-28" target="0aJKDV-4UEbGTjIscSVI-53" edge="1">
          <mxGeometry relative="1" as="geometry" />
        </mxCell>
        <mxCell id="0aJKDV-4UEbGTjIscSVI-62" style="edgeStyle=orthogonalEdgeStyle;shape=connector;curved=0;rounded=1;orthogonalLoop=1;jettySize=auto;html=1;labelBackgroundColor=default;strokeColor=#788AA3;align=center;verticalAlign=middle;fontFamily=Helvetica;fontSize=12;fontColor=#46495D;endArrow=classic;startSize=20;fillColor=#B2C9AB;" parent="0aJKDV-4UEbGTjIscSVI-1" source="0aJKDV-4UEbGTjIscSVI-61" target="0aJKDV-4UEbGTjIscSVI-58" edge="1">
          <mxGeometry relative="1" as="geometry" />
        </mxCell>
        <mxCell id="0aJKDV-4UEbGTjIscSVI-68" value="" style="edgeStyle=orthogonalEdgeStyle;shape=connector;curved=0;rounded=1;orthogonalLoop=1;jettySize=auto;html=1;entryX=1;entryY=0.5;entryDx=0;entryDy=0;labelBackgroundColor=default;strokeColor=#788AA3;align=center;verticalAlign=middle;fontFamily=Helvetica;fontSize=12;fontColor=#46495D;endArrow=classic;startSize=20;fillColor=#B2C9AB;" parent="0aJKDV-4UEbGTjIscSVI-1" source="0aJKDV-4UEbGTjIscSVI-66" target="0aJKDV-4UEbGTjIscSVI-59" edge="1">
          <mxGeometry relative="1" as="geometry" />
        </mxCell>
        <mxCell id="0aJKDV-4UEbGTjIscSVI-70" style="edgeStyle=orthogonalEdgeStyle;shape=connector;curved=0;rounded=1;orthogonalLoop=1;jettySize=auto;html=1;entryX=0;entryY=0.5;entryDx=0;entryDy=0;labelBackgroundColor=default;strokeColor=#788AA3;align=center;verticalAlign=middle;fontFamily=Helvetica;fontSize=12;fontColor=#46495D;endArrow=classic;startSize=20;fillColor=#B2C9AB;exitX=0.5;exitY=1;exitDx=0;exitDy=0;" parent="0aJKDV-4UEbGTjIscSVI-1" source="0aJKDV-4UEbGTjIscSVI-59" target="0aJKDV-4UEbGTjIscSVI-69" edge="1">
          <mxGeometry relative="1" as="geometry">
            <Array as="points">
              <mxPoint x="675" y="1115" />
            </Array>
          </mxGeometry>
        </mxCell>
        <mxCell id="0aJKDV-4UEbGTjIscSVI-71" value="征信合同签章" style="edgeLabel;html=1;align=center;verticalAlign=middle;resizable=0;points=[];fontSize=12;fontFamily=Helvetica;fontColor=#46495D;" parent="0aJKDV-4UEbGTjIscSVI-70" vertex="1" connectable="0">
          <mxGeometry x="0.0926" y="2" relative="1" as="geometry">
            <mxPoint x="-85" y="2" as="offset" />
          </mxGeometry>
        </mxCell>
        <mxCell id="0aJKDV-4UEbGTjIscSVI-78" style="edgeStyle=orthogonalEdgeStyle;shape=connector;curved=0;rounded=1;orthogonalLoop=1;jettySize=auto;html=1;entryX=0.5;entryY=0;entryDx=0;entryDy=0;labelBackgroundColor=default;strokeColor=#788AA3;align=center;verticalAlign=middle;fontFamily=Helvetica;fontSize=12;fontColor=#46495D;endArrow=classic;startSize=20;fillColor=#B2C9AB;" parent="0aJKDV-4UEbGTjIscSVI-1" source="0aJKDV-4UEbGTjIscSVI-75" target="0aJKDV-4UEbGTjIscSVI-77" edge="1">
          <mxGeometry relative="1" as="geometry" />
        </mxCell>
        <mxCell id="0aJKDV-4UEbGTjIscSVI-79" value="消费" style="edgeLabel;html=1;align=center;verticalAlign=middle;resizable=0;points=[];fontSize=12;fontFamily=Helvetica;fontColor=#46495D;" parent="0aJKDV-4UEbGTjIscSVI-78" vertex="1" connectable="0">
          <mxGeometry x="-0.0821" y="1" relative="1" as="geometry">
            <mxPoint as="offset" />
          </mxGeometry>
        </mxCell>
        <mxCell id="0aJKDV-4UEbGTjIscSVI-85" style="edgeStyle=orthogonalEdgeStyle;shape=connector;curved=0;rounded=1;orthogonalLoop=1;jettySize=auto;html=1;labelBackgroundColor=default;strokeColor=#788AA3;align=center;verticalAlign=middle;fontFamily=Helvetica;fontSize=12;fontColor=#46495D;endArrow=classic;startSize=20;fillColor=#B2C9AB;" parent="0aJKDV-4UEbGTjIscSVI-1" source="0aJKDV-4UEbGTjIscSVI-82" target="0aJKDV-4UEbGTjIscSVI-84" edge="1">
          <mxGeometry relative="1" as="geometry" />
        </mxCell>
        <mxCell id="0aJKDV-4UEbGTjIscSVI-88" style="edgeStyle=orthogonalEdgeStyle;shape=connector;curved=0;rounded=1;orthogonalLoop=1;jettySize=auto;html=1;entryX=1;entryY=0.5;entryDx=0;entryDy=0;labelBackgroundColor=default;strokeColor=#788AA3;align=center;verticalAlign=middle;fontFamily=Helvetica;fontSize=12;fontColor=#46495D;endArrow=classic;startSize=20;fillColor=#B2C9AB;" parent="0aJKDV-4UEbGTjIscSVI-1" source="0aJKDV-4UEbGTjIscSVI-84" target="0aJKDV-4UEbGTjIscSVI-86" edge="1">
          <mxGeometry relative="1" as="geometry" />
        </mxCell>
        <mxCell id="0aJKDV-4UEbGTjIscSVI-91" style="edgeStyle=orthogonalEdgeStyle;shape=connector;curved=0;rounded=1;orthogonalLoop=1;jettySize=auto;html=1;entryX=0;entryY=0.5;entryDx=0;entryDy=0;labelBackgroundColor=default;strokeColor=#788AA3;align=center;verticalAlign=middle;fontFamily=Helvetica;fontSize=12;fontColor=#46495D;endArrow=classic;startSize=20;fillColor=#B2C9AB;" parent="0aJKDV-4UEbGTjIscSVI-1" source="0aJKDV-4UEbGTjIscSVI-89" target="0aJKDV-4UEbGTjIscSVI-90" edge="1">
          <mxGeometry relative="1" as="geometry" />
        </mxCell>
        <mxCell id="0aJKDV-4UEbGTjIscSVI-93" style="edgeStyle=orthogonalEdgeStyle;shape=connector;curved=0;rounded=1;orthogonalLoop=1;jettySize=auto;html=1;labelBackgroundColor=default;strokeColor=#788AA3;align=center;verticalAlign=middle;fontFamily=Helvetica;fontSize=12;fontColor=#46495D;endArrow=classic;startSize=20;fillColor=#B2C9AB;entryX=0;entryY=0.5;entryDx=0;entryDy=0;" parent="0aJKDV-4UEbGTjIscSVI-1" source="0aJKDV-4UEbGTjIscSVI-90" target="0aJKDV-4UEbGTjIscSVI-92" edge="1">
          <mxGeometry relative="1" as="geometry">
            <mxPoint x="375.99999999999955" y="1545" as="targetPoint" />
          </mxGeometry>
        </mxCell>
        <mxCell id="0aJKDV-4UEbGTjIscSVI-95" style="edgeStyle=orthogonalEdgeStyle;shape=connector;curved=0;rounded=1;orthogonalLoop=1;jettySize=auto;html=1;labelBackgroundColor=default;strokeColor=#788AA3;align=center;verticalAlign=middle;fontFamily=Helvetica;fontSize=12;fontColor=#46495D;endArrow=classic;startSize=20;fillColor=#B2C9AB;" parent="0aJKDV-4UEbGTjIscSVI-1" source="0aJKDV-4UEbGTjIscSVI-92" target="0aJKDV-4UEbGTjIscSVI-94" edge="1">
          <mxGeometry relative="1" as="geometry" />
        </mxCell>
        <mxCell id="0aJKDV-4UEbGTjIscSVI-99" style="edgeStyle=orthogonalEdgeStyle;shape=connector;curved=0;rounded=1;orthogonalLoop=1;jettySize=auto;html=1;labelBackgroundColor=default;strokeColor=#788AA3;align=center;verticalAlign=middle;fontFamily=Helvetica;fontSize=12;fontColor=#46495D;endArrow=classic;startSize=20;fillColor=#B2C9AB;" parent="0aJKDV-4UEbGTjIscSVI-1" source="0aJKDV-4UEbGTjIscSVI-97" target="0aJKDV-4UEbGTjIscSVI-98" edge="1">
          <mxGeometry relative="1" as="geometry" />
        </mxCell>
        <mxCell id="0aJKDV-4UEbGTjIscSVI-101" style="edgeStyle=orthogonalEdgeStyle;shape=connector;curved=0;rounded=1;orthogonalLoop=1;jettySize=auto;html=1;entryX=0;entryY=0.5;entryDx=0;entryDy=0;labelBackgroundColor=default;strokeColor=#788AA3;align=center;verticalAlign=middle;fontFamily=Helvetica;fontSize=12;fontColor=#46495D;endArrow=classic;startSize=20;fillColor=#B2C9AB;" parent="0aJKDV-4UEbGTjIscSVI-1" source="0aJKDV-4UEbGTjIscSVI-98" target="0aJKDV-4UEbGTjIscSVI-104" edge="1">
          <mxGeometry relative="1" as="geometry">
            <mxPoint x="1027.9999999999995" y="1665" as="targetPoint" />
          </mxGeometry>
        </mxCell>
        <mxCell id="0aJKDV-4UEbGTjIscSVI-103" style="edgeStyle=orthogonalEdgeStyle;shape=connector;curved=0;rounded=1;orthogonalLoop=1;jettySize=auto;html=1;entryX=0;entryY=0.5;entryDx=0;entryDy=0;labelBackgroundColor=default;strokeColor=#788AA3;align=center;verticalAlign=middle;fontFamily=Helvetica;fontSize=12;fontColor=#46495D;endArrow=classic;startSize=20;fillColor=#B2C9AB;" parent="0aJKDV-4UEbGTjIscSVI-1" source="0aJKDV-4UEbGTjIscSVI-98" target="0aJKDV-4UEbGTjIscSVI-102" edge="1">
          <mxGeometry relative="1" as="geometry">
            <Array as="points">
              <mxPoint x="210" y="1725" />
            </Array>
          </mxGeometry>
        </mxCell>
        <mxCell id="_hFNNQDsAzryGd1d4DFy-1" style="edgeStyle=orthogonalEdgeStyle;rounded=1;orthogonalLoop=1;jettySize=auto;html=1;entryX=1;entryY=0.5;entryDx=0;entryDy=0;curved=0;" edge="1" parent="0aJKDV-4UEbGTjIscSVI-1" source="0aJKDV-4UEbGTjIscSVI-72" target="0aJKDV-4UEbGTjIscSVI-40">
          <mxGeometry relative="1" as="geometry" />
        </mxCell>
        <mxCell id="_hFNNQDsAzryGd1d4DFy-3" style="edgeStyle=orthogonalEdgeStyle;rounded=0;orthogonalLoop=1;jettySize=auto;html=1;entryX=0;entryY=0.5;entryDx=0;entryDy=0;" edge="1" parent="0aJKDV-4UEbGTjIscSVI-1" source="0aJKDV-4UEbGTjIscSVI-53" target="_hFNNQDsAzryGd1d4DFy-2">
          <mxGeometry relative="1" as="geometry" />
        </mxCell>
        <mxCell id="_hFNNQDsAzryGd1d4DFy-4" style="edgeStyle=orthogonalEdgeStyle;rounded=0;orthogonalLoop=1;jettySize=auto;html=1;" edge="1" parent="0aJKDV-4UEbGTjIscSVI-1" source="_hFNNQDsAzryGd1d4DFy-2" target="_hFNNQDsAzryGd1d4DFy-5">
          <mxGeometry relative="1" as="geometry">
            <mxPoint x="1555.9999999999995" y="835" as="targetPoint" />
          </mxGeometry>
        </mxCell>
      </root>
    </mxGraphModel>
  </diagram>
</mxfile>
